<?xml version="1.0" encoding="utf-8"?>
<svg width="1772px" height="215px" viewBox="0 0 1772 215" version="1.1" xmlns:xlink="http://www.w3.org/1999/xlink" xmlns="http://www.w3.org/2000/svg">
  <defs>
    <filter filterUnits="userSpaceOnUse" color-interpolation-filters="sRGB" id="filter_1">
      <feFlood flood-opacity="0" result="BackgroundImageFix" />
      <feColorMatrix in="SourceAlpha" type="matrix" values="0 0 0 0 0 0 0 0 0 0 0 0 0 0 0 0 0 0 127 0" />
      <feOffset dx="16" dy="18" />
      <feGaussianBlur stdDeviation="4" />
      <feColorMatrix type="matrix" values="0 0 0 0 0.39215687 0 0 0 0 0.39215687 0 0 0 0 0.39215687 0 0 0 0.49803922 0" />
      <feBlend mode="normal" in2="BackgroundImageFix" result="effect0_dropShadow" />
      <feBlend mode="normal" in="SourceGraphic" in2="effect0_dropShadow" result="shape" />
    </filter>
  </defs>
  <g id="photokal" fill="#FFF600" filter="url(#filter_1)">
    <path d="M145.617 146.414L167.766 146.414L167.766 102.188Q167.766 72.6563 143.297 72.6563Q129.305 72.6563 121.148 85.1016L120.867 85.1016L120.867 39.8203L98.6484 39.8203L98.6484 146.414L120.867 146.414L120.867 105.352Q120.867 98.5313 124.523 94.1016Q128.18 89.6719 134.086 89.6719Q145.617 89.6719 145.617 105.492L145.617 146.414ZM462.938 146.414L489.586 146.414L461.953 108.234L487.758 74.4141L461.391 74.4141L439.945 107.672L439.664 107.672L439.664 39.8203L417.445 39.8203L417.445 146.414L439.664 146.414L439.664 110.695L439.945 110.695L462.938 146.414ZM575.438 146.414L597.656 146.414L597.656 39.8203L575.438 39.8203L575.438 146.414ZM302.063 148.172Q311.977 148.172 316.898 145.57L316.898 129.117Q313.172 131.156 309.656 131.156Q300.727 131.156 300.727 119.906L300.727 90.7969L316.898 90.7969L316.898 74.4141L300.727 74.4141L300.727 52.5469L278.578 58.875L278.578 74.4141L266.906 74.4141L266.906 90.7969L278.578 90.7969L278.578 123.773Q278.578 148.172 302.063 148.172ZM31.5703 138.047L31.8516 138.047Q38.6719 148.172 51.6797 148.172Q66.4453 148.172 75.3398 137.273Q84.2344 126.375 84.2344 108.375Q84.2344 91.8516 76.6055 82.2539Q68.9766 72.6563 54.9844 72.6563Q40.0781 72.6563 31.8516 85.2422L31.5703 85.2422L31.5703 74.4141L9.35156 74.4141L9.35156 179.531L31.5703 179.531L31.5703 138.047ZM219.656 148.172Q201.656 148.172 191.355 138.082Q181.055 127.992 181.055 110.695Q181.055 92.8359 191.742 82.7461Q202.43 72.6563 220.641 72.6563Q238.57 72.6563 248.766 82.7461Q258.961 92.8359 258.961 109.43Q258.961 127.359 248.449 137.766Q237.938 148.172 219.656 148.172ZM363.727 148.172Q345.727 148.172 335.426 138.082Q325.125 127.992 325.125 110.695Q325.125 92.8359 335.813 82.7461Q346.5 72.6563 364.711 72.6563Q382.641 72.6563 392.836 82.7461Q403.031 92.8359 403.031 109.43Q403.031 127.359 392.52 137.766Q382.008 148.172 363.727 148.172ZM557.859 146.414L536.836 146.414L536.836 136.078L536.555 136.078Q529.313 148.172 515.109 148.172Q504.633 148.172 498.621 142.23Q492.609 136.289 492.609 126.375Q492.609 105.422 517.43 102.188L536.977 99.5859Q536.977 87.7734 524.18 87.7734Q511.313 87.7734 499.711 95.4375L499.711 78.7031Q504.352 76.3125 512.402 74.4844Q520.453 72.6563 527.063 72.6563Q557.859 72.6563 557.859 103.383L557.859 146.414ZM31.2188 114.281L31.2188 108.516Q31.2187 100.008 35.543 94.8398Q39.8672 89.6719 46.6875 89.6719Q61.4531 89.6719 61.4531 108.656Q61.4531 119.414 57.2695 125.285Q53.0859 131.156 45.4922 131.156Q39.0938 131.156 35.1563 126.445Q31.2187 121.734 31.2188 114.281ZM220.219 89.6719Q212.344 89.6719 207.984 95.0859Q203.625 100.5 203.625 110.414Q203.625 131.156 220.359 131.156Q236.32 131.156 236.32 109.852Q236.32 89.6719 220.219 89.6719ZM364.289 89.6719Q356.414 89.6719 352.055 95.0859Q347.695 100.5 347.695 110.414Q347.695 131.156 364.43 131.156Q380.391 131.156 380.391 109.852Q380.391 89.6719 364.289 89.6719ZM536.977 117.164L536.977 112.313L523.898 114Q513.07 115.406 513.07 123.773Q513.07 127.57 515.707 129.996Q518.344 132.422 522.844 132.422Q529.102 132.422 533.039 128.098Q536.977 123.773 536.977 117.164Z" />
  </g>
</svg>